# xmcd
#
# Track frame offsets: 
#        150
#        17752
#        33742
#        47457
#        62565
#        74845
#        89327
#        109925
#        128705
#        152205
#        169985
#        186552
#        203032
#        231172
#        251700
#        269727
#
# Disc length: 4098 seconds
#
# Revision: 1
# Processed by: cddbd v1.5.2PL0 Copyright (c) Steve Scherf et al.
# Submitted via: ExactAudioCopyFreeDBPlugin 1.0
#
DISCID=f3100010
DTITLE=Eric Clapton - Lost Club Shows [CD 1)
DYEAR=2002
DGENRE=Blues
TTITLE0=Motherless Children
TTITLE1=Malted Milk
TTITLE2=From Four Until Late
TTITLE3=How Long
TTITLE4=Kidman Blues
TTITLE5=Cut Your Head
TTITLE6=Forty Four
TTITLE7=Blues All Day Long
TTITLE8=Standin' Around Crying
TTITLE9=Hoochie Coochie Man
TTITLE10=It Hurts Me Too
TTITLE11=Blues Before Sunrise
TTITLE12=Third Degree
TTITLE13=Reconsider Baby
TTITLE14=Sinner's Prayer
TTITLE15=Everyday I Have The Blues
EXTD=
EXTT0=
EXTT1=
EXTT2=
EXTT3=
EXTT4=
EXTT5=
EXTT6=
EXTT7=
EXTT8=
EXTT9=
EXTT10=
EXTT11=
EXTT12=
EXTT13=
EXTT14=
EXTT15=
PLAYORDER=
